<svg preserveAspectRatio="xMidYMid meet" data-bbox="20 31 160 138" viewBox="20 31 160 138" height="200" width="200" xmlns="http://www.w3.org/2000/svg" data-type="color" role="presentation" aria-hidden="true" aria-label="">
    <g>
        <path d="M155.264 145.937v-5.782c0-.498-.4-.903-.894-.903h-15.317a.9.9 0 0 0-.894.903v5.782h-37.266v-8.352l.721-.209c12.047-3.508 24.644-5.287 37.438-5.287 12.796 0 25.392 1.778 37.438 5.287l.721.209v8.352h-21.947z" fill="#FFFFFF" data-color="1"></path>
        <path d="M101.894 138.336v6.601h35.265v-4.782c0-1.051.848-1.903 1.894-1.903h15.317c1.046 0 1.894.852 1.894 1.903v4.782h19.948v-6.601c-24.026-6.997-50.295-6.996-74.318 0z" fill="#FFFFFF" data-color="1"></path>
        <path d="m100.894 39.293.721-.209c12.044-3.507 24.64-5.285 37.438-5.285s25.395 1.778 37.439 5.285l.721.209-.001 96.386-1.271-.359c-11.884-3.353-24.295-5.053-36.887-5.053-12.593 0-25.004 1.7-36.888 5.053l-1.271.359V39.293zm12.201 75.257c8.35-2.43 17.078-3.662 25.959-3.662 8.88 0 17.607 1.232 25.957 3.662l.519-1.729c-8.514-2.479-17.416-3.736-26.477-3.736s-17.962 1.256-26.477 3.736l.519 1.729zm0-19.523c8.35-2.43 17.078-3.662 25.959-3.662 8.88 0 17.607 1.232 25.957 3.662l.519-1.729c-8.514-2.479-17.416-3.736-26.477-3.736s-17.962 1.256-26.477 3.736l.519 1.729zm0-19.524c8.351-2.429 17.077-3.66 25.959-3.66 8.88 0 17.607 1.231 25.957 3.66l.519-1.729c-8.514-2.479-17.416-3.736-26.477-3.736s-17.962 1.256-26.477 3.736l.519 1.729zm0-19.523c8.35-2.43 17.078-3.662 25.959-3.662 8.88 0 17.607 1.231 25.957 3.662l.519-1.729c-8.514-2.479-17.416-3.736-26.477-3.736s-17.962 1.256-26.477 3.736l.519 1.729z" fill="#FFFFFF" data-color="1"></path>
        <path d="M101.894 40.044v94.314c12.032-3.395 24.594-5.09 37.159-5.09 12.564 0 25.126 1.696 37.158 5.09l.001-94.314c-24.022-6.993-50.3-6.993-74.318 0zm63.789 75.749c-17.173-5.206-36.086-5.206-53.259 0l-1.093-3.645c17.878-5.418 37.568-5.418 55.446 0l-1.094 3.645zm0-19.524c-17.173-5.206-36.086-5.206-53.259 0l-1.093-3.645c17.878-5.418 37.568-5.418 55.446 0l-1.094 3.645zm0-19.523c-17.173-5.204-36.086-5.204-53.259 0l-1.093-3.645c17.878-5.418 37.568-5.418 55.446 0l-1.094 3.645zm1.093-23.168-1.093 3.645c-17.173-5.206-36.086-5.206-53.259 0l-1.093-3.645c17.877-5.417 37.567-5.417 55.445 0z" fill="#FFFFFF" data-color="1"></path>
        <path d="M97.835 135.32c-11.884-3.353-24.295-5.053-36.888-5.053s-25.004 1.7-36.888 5.053l-1.271.359V39.293l.721-.209c12.044-3.507 24.64-5.284 37.438-5.284s25.394 1.777 37.438 5.284l.721.209v96.386l-1.271-.359zm-36.888-24.431c8.88 0 17.608 1.232 25.958 3.662l.519-1.729c-8.515-2.479-17.416-3.736-26.477-3.736s-17.963 1.256-26.477 3.736l.519 1.729c8.35-2.43 17.077-3.662 25.958-3.662zm0-19.524c8.88 0 17.608 1.232 25.958 3.662l.519-1.729c-8.515-2.479-17.416-3.736-26.477-3.736s-17.963 1.256-26.477 3.736l.519 1.729c8.35-2.43 17.077-3.662 25.958-3.662zm0-19.522c8.881 0 17.607 1.231 25.958 3.66l.519-1.729c-8.515-2.479-17.416-3.736-26.477-3.736s-17.963 1.256-26.477 3.736l.519 1.729c8.35-2.429 17.077-3.66 25.958-3.66zm0-19.524c8.88 0 17.608 1.231 25.958 3.662l.519-1.729c-8.515-2.479-17.416-3.736-26.477-3.736s-17.963 1.256-26.477 3.736l.519 1.729c8.35-2.431 17.077-3.662 25.958-3.662z" fill="#FFFFFF" data-color="1"></path>
        <path d="M23.788 40.044v94.314c12.032-3.395 24.595-5.09 37.159-5.09s25.127 1.696 37.159 5.09V40.044c-24.02-6.992-50.298-6.992-74.318 0zm63.789 75.749c-17.173-5.206-36.086-5.206-53.259 0l-1.093-3.645c17.878-5.418 37.568-5.418 55.446 0l-1.094 3.645zm0-19.524c-17.173-5.206-36.086-5.206-53.259 0l-1.093-3.645c17.878-5.418 37.568-5.418 55.446 0l-1.094 3.645zm0-19.523c-17.173-5.204-36.086-5.204-53.259 0l-1.093-3.645c17.878-5.418 37.568-5.418 55.446 0l-1.094 3.645zm0-19.523c-17.173-5.206-36.086-5.206-53.259 0l-1.093-3.645c17.878-5.418 37.568-5.418 55.446 0l-1.094 3.645z" fill="#FFFFFF" data-color="1"></path>
        <path d="M22.788 145.937v-8.352l.721-.209c12.047-3.508 24.643-5.286 37.438-5.286 12.795 0 25.392 1.778 37.438 5.286l.721.209v8.352H22.788z" fill="#FFFFFF" data-color="1"></path>
        <path d="M23.788 138.336v6.601h74.318v-6.601c-24.025-6.996-50.293-6.996-74.318 0z" fill="#FFFFFF" data-color="1"></path>
        <path d="M101.894 138.336v6.601h35.265v-4.782c0-1.051.848-1.903 1.894-1.903h15.317c1.046 0 1.894.852 1.894 1.903v4.782h19.948v-6.601c-24.026-6.997-50.295-6.996-74.318 0z" opacity=".28"></path>
        <path d="M23.788 138.336v6.601h74.318v-6.601c-24.025-6.996-50.293-6.996-74.318 0z" opacity=".28"></path>
        <path d="M147.045 163.146a.889.889 0 0 0-.669.001l-6.429 2.613v-24.703h13.528v24.703l-6.43-2.614z" fill="#FF7F6C" data-color="2"></path>
        <path d="m140.947 164.275 5.055-2.055a1.895 1.895 0 0 1 1.42 0l5.054 2.055v-22.217h-11.529v22.217z" fill="#FF7F6C" data-color="2"></path>
        <path d="m33.224 53.578 1.093 3.645c17.173-5.206 36.086-5.206 53.259 0l1.093-3.645c-17.877-5.417-37.567-5.417-55.445 0z" fill="#252525" data-color="3"></path>
        <path d="m33.224 73.101 1.093 3.645c17.173-5.204 36.086-5.204 53.259 0l1.093-3.645c-17.877-5.417-37.567-5.417-55.445 0z" fill="#252525" data-color="3"></path>
        <path d="m33.224 92.625 1.093 3.645c17.173-5.206 36.086-5.206 53.259 0l1.093-3.645c-17.877-5.418-37.567-5.418-55.445 0z" fill="#252525" data-color="3"></path>
        <path d="m33.224 112.149 1.093 3.645c17.173-5.206 36.086-5.206 53.259 0l1.093-3.645c-17.877-5.418-37.567-5.418-55.445 0z" fill="#252525" data-color="3"></path>
        <path d="M112.423 57.223c17.173-5.206 36.086-5.206 53.259 0l1.093-3.645c-17.878-5.418-37.568-5.418-55.446 0l1.094 3.645z" fill="#252525" data-color="3"></path>
        <path d="m111.33 73.101 1.093 3.645c17.173-5.204 36.086-5.204 53.259 0l1.093-3.645c-17.877-5.417-37.567-5.417-55.445 0z" fill="#252525" data-color="3"></path>
        <path d="m111.33 92.625 1.093 3.645c17.173-5.206 36.086-5.206 53.259 0l1.093-3.645c-17.877-5.418-37.567-5.418-55.445 0z" fill="#252525" data-color="3"></path>
        <path d="m111.33 112.149 1.093 3.645c17.173-5.206 36.086-5.206 53.259 0l1.093-3.645c-17.877-5.418-37.567-5.418-55.445 0z" fill="#252525" data-color="3"></path>
        <path d="M180 146.84v-9.946l-.001-98.272c0-.839-.547-1.58-1.347-1.822-25.355-7.684-53.263-7.73-78.652-.154-25.39-7.575-53.299-7.53-78.653.154-.8.242-1.347.983-1.347 1.822V146.84c0 1.051.848 1.903 1.894 1.903h115.265v18.354c0 .633.313 1.224.835 1.578a1.887 1.887 0 0 0 1.769.187l6.949-2.824 6.948 2.824a1.886 1.886 0 0 0 1.769-.187c.522-.354.835-.945.835-1.578v-18.354h21.842A1.899 1.899 0 0 0 180 146.84zm-81.894-1.903H23.788v-6.601c24.025-6.995 50.293-6.995 74.318 0v6.601zm0-10.579c-12.032-3.395-24.595-5.09-37.159-5.09s-25.127 1.696-37.159 5.09V40.044c24.02-6.992 50.298-6.992 74.318 0v94.314zm54.37 29.917-5.054-2.055a1.895 1.895 0 0 0-1.42 0l-5.055 2.055v-22.217h11.529v22.217zm23.736-19.338h-19.948v-4.782a1.899 1.899 0 0 0-1.894-1.903h-15.317a1.899 1.899 0 0 0-1.894 1.903v4.782h-35.265v-6.601c24.023-6.995 50.292-6.996 74.318 0v6.601zm-.001-10.579c-12.032-3.395-24.594-5.09-37.158-5.09-12.565 0-25.127 1.696-37.159 5.09V40.044c24.018-6.993 50.296-6.993 74.318 0l-.001 94.314z" fill="#252525" data-color="3"></path>
    </g>
</svg>